#N canvas 73 97 1368 408 12;
#X obj 760 362 ctlout;
#X floatatom 728 312 5 0 127 0 - - -;
#X floatatom 575 314 5 0 127 0 - - -;
#X obj 609 359 ctlout;
#X msg 823 312 1;
#X msg 672 313 1;
#X obj 920 362 ctlout;
#X floatatom 886 312 5 0 127 0 - - -;
#X msg 981 312 1;
#X obj 575 170 vsl 32 128 0 127 0 0 empty empty Expression 0 -9 0 10
-262144 -1 -1 0 1;
#X obj 728 168 vsl 32 128 0 127 0 0 empty empty Dynamics 0 -9 0 10
-262144 -1 -1 0 1;
#X obj 886 167 vsl 32 128 0 127 0 0 empty empty Reverb 0 -9 0 10 -262144
-1 -1 0 1;
#X obj 1079 363 ctlout;
#X floatatom 1045 313 5 0 127 0 - - -;
#X msg 1140 313 1;
#X obj 1045 168 vsl 32 128 0 127 0 0 empty empty Volume 0 -9 0 10 -262144
-1 -1 0 1;
#X obj 575 9 receive fromGUI;
#X floatatom 575 116 5 0 0 0 - - -;
#X floatatom 728 122 5 0 0 0 - - -;
#X floatatom 886 125 5 0 0 0 - - -;
#X floatatom 1045 126 5 0 0 0 - - -;
#X text 731 11 see values coming in from GUI widgets;
#X obj 575 41 list trim;
#X obj 1101 22 loadbang;
#X obj 1101 223 trigger b b b b b b b b;
#X obj 1123 183 send toGUI;
#X obj 504 172 loadbang;
#X obj 575 69 route /myButton20 /myButton21 /myButton22 /myButton23
/mySlider26 /mySlider27 /mySlider28 /mySlider29;
#X msg 1123 58 list /mySlider26 0;
#X msg 1142 91 list /mySlider27 0;
#X msg 1161 123 list /mySlider28 0;
#X msg 1175 152 list /mySlider29 0;
#X msg 628 314 26;
#X msg 780 312 27;
#X msg 939 312 28;
#X msg 1098 313 29;
#X obj 11 351 ctlout;
#X obj 151 356 ctlout;
#X obj 295 358 ctlout;
#X obj 434 358 ctlout;
#X obj 11 284 * 127;
#X obj 11 172 t f;
#X obj 151 284 * 127;
#X obj 151 172 t f;
#X obj 295 281 * 127;
#X obj 295 172 t f;
#X obj 434 171 t f;
#X obj 434 281 * 127;
#X obj 400 221 trigger b b b b b b b b;
#X msg 106 317 1;
#X msg 249 317 1;
#X msg 389 315 1;
#X msg 528 314 1;
#X msg 64 316 20;
#X msg 206 317 21;
#X msg 347 315 22;
#X msg 486 314 23;
#X floatatom 11 316 5 0 127 0 - - -;
#X floatatom 151 318 5 0 127 0 - - -;
#X floatatom 295 316 5 0 127 0 - - -;
#X floatatom 434 316 5 0 127 0 - - -;
#X connect 1 0 0 0;
#X connect 2 0 3 0;
#X connect 4 0 0 2;
#X connect 5 0 3 2;
#X connect 7 0 6 0;
#X connect 8 0 6 2;
#X connect 9 0 2 0;
#X connect 10 0 1 0;
#X connect 11 0 7 0;
#X connect 13 0 12 0;
#X connect 14 0 12 2;
#X connect 15 0 13 0;
#X connect 16 0 22 0;
#X connect 17 0 9 0;
#X connect 18 0 10 0;
#X connect 19 0 11 0;
#X connect 20 0 15 0;
#X connect 22 0 27 0;
#X connect 23 0 24 0;
#X connect 23 0 28 0;
#X connect 23 0 29 0;
#X connect 23 0 30 0;
#X connect 23 0 31 0;
#X connect 24 0 32 0;
#X connect 24 1 5 0;
#X connect 24 2 33 0;
#X connect 24 3 4 0;
#X connect 24 4 34 0;
#X connect 24 5 8 0;
#X connect 24 6 35 0;
#X connect 24 7 14 0;
#X connect 26 0 48 0;
#X connect 27 0 41 0;
#X connect 27 1 43 0;
#X connect 27 2 45 0;
#X connect 27 3 46 0;
#X connect 27 4 17 0;
#X connect 27 5 18 0;
#X connect 27 6 19 0;
#X connect 27 7 20 0;
#X connect 28 0 25 0;
#X connect 29 0 25 0;
#X connect 30 0 25 0;
#X connect 31 0 25 0;
#X connect 32 0 3 1;
#X connect 33 0 0 1;
#X connect 34 0 6 1;
#X connect 35 0 12 1;
#X connect 40 0 57 0;
#X connect 41 0 40 0;
#X connect 42 0 58 0;
#X connect 43 0 42 0;
#X connect 44 0 59 0;
#X connect 45 0 44 0;
#X connect 46 0 47 0;
#X connect 47 0 60 0;
#X connect 48 0 53 0;
#X connect 48 1 49 0;
#X connect 48 2 54 0;
#X connect 48 3 50 0;
#X connect 48 4 55 0;
#X connect 48 5 51 0;
#X connect 48 6 56 0;
#X connect 48 7 52 0;
#X connect 49 0 36 2;
#X connect 50 0 37 2;
#X connect 51 0 38 2;
#X connect 52 0 39 2;
#X connect 53 0 36 1;
#X connect 54 0 37 1;
#X connect 55 0 38 1;
#X connect 56 0 39 1;
#X connect 57 0 36 0;
#X connect 58 0 37 0;
#X connect 59 0 38 0;
#X connect 60 0 39 0;
